<svg width="81" height="79" viewBox="0 0 81 79" fill="none" xmlns="http://www.w3.org/2000/svg">
<path d="M76.5926 78.605H4.66729C2.25742 78.605 0.30481 76.6524 0.30481 74.2425C0.30481 71.8326 2.25742 69.88 4.66729 69.88H76.5926C79.0025 69.88 80.9551 71.8326 80.9551 74.2425C80.9551 76.6524 79.0025 78.605 76.5926 78.605Z" fill="#4AB61A"/>
<path d="M40.6299 28.146C39.2581 28.146 37.9605 27.491 37.1325 26.3911L22.6115 6.97624C21.1655 5.04834 21.561 2.30479 23.4889 0.87123C25.4168 -0.574692 28.1603 -0.179227 29.6063 1.74867L40.6299 16.4921L51.6535 1.74867C53.0994 -0.179227 55.8306 -0.574692 57.7708 0.87123C59.6987 2.31715 60.0942 5.04834 58.6483 6.97624L44.1273 26.3911C43.2993 27.5034 42.0016 28.146 40.6299 28.146Z" fill="#4AB61A"/>
<path d="M40.6299 61.4517C38.3313 61.4517 36.1809 60.3641 34.7968 58.5351L9.46226 24.6486C7.05239 21.4355 7.71974 16.8629 10.9329 14.4654C14.1461 12.0555 18.7063 12.7229 21.1162 15.936L40.6176 42.0244L60.119 15.936C62.5288 12.7229 67.0891 12.0555 70.3022 14.4654C73.5154 16.8752 74.1827 21.4355 71.7729 24.6486L46.4383 58.5351C45.0789 60.3765 42.9162 61.4517 40.6299 61.4517Z" fill="#4AB61A"/>
</svg>
