<svg width="58" height="58" viewBox="0 0 58 58" fill="none" xmlns="http://www.w3.org/2000/svg">
<path d="M0.125 29C0.125 34.7109 1.81849 40.2936 4.99132 45.0421C8.16414 49.7906 12.6738 53.4915 17.95 55.677C23.2262 57.8625 29.032 58.4343 34.6332 57.3202C40.2344 56.206 45.3795 53.456 49.4177 49.4177C53.456 45.3795 56.206 40.2344 57.3202 34.6332C58.4343 29.032 57.8625 23.2262 55.677 17.95C53.4915 12.6738 49.7906 8.16414 45.0421 4.99132C40.2936 1.81849 34.7109 0.125 29 0.125C21.3419 0.125 13.9974 3.16718 8.58229 8.58229C3.16718 13.9974 0.125 21.3419 0.125 29ZM47.8719 44.9844L13.0156 10.1281C17.7607 6.17843 23.8106 4.14477 29.978 4.42627C36.1453 4.70776 41.9848 7.2841 46.3504 11.6496C50.7159 16.0152 53.2922 21.8547 53.5737 28.022C53.8552 34.1894 51.8216 40.2393 47.8719 44.9844ZM12.995 47.8925C8.0003 43.651 4.89145 37.6019 4.35015 31.0716C3.80886 24.5413 5.87932 18.0629 10.1075 13.0569L44.9431 47.8925C40.4762 51.6669 34.8171 53.7377 28.9691 53.7377C23.121 53.7377 17.4619 51.6669 12.995 47.8925Z" fill="#DD2025"/>
</svg>
