<svg width="28" height="28" viewBox="0 0 28 28" fill="none" xmlns="http://www.w3.org/2000/svg">
<g clip-path="url(#clip0_5_1169)">
<path d="M0 3.5C0 1.56953 1.56953 0 3.5 0H11.25C11.8023 0 12.25 0.447715 12.25 1V7C12.25 7.96797 13.032 8.75 14 8.75H20C20.5523 8.75 21 9.19772 21 9.75V15.625C21 16.1773 20.5523 16.625 20 16.625H9.625C7.69453 16.625 6.125 18.1945 6.125 20.125V27C6.125 27.5523 5.67728 28 5.125 28H3.5C1.56953 28 0 26.4305 0 24.5V3.5ZM19.2929 5.29289C19.9229 5.92286 19.4767 7 18.5858 7H15C14.4477 7 14 6.55228 14 6V2.41421C14 1.52331 15.0771 1.07714 15.7071 1.70711L19.2929 5.29289ZM10.9375 19.25H11.8125C13.0211 19.25 14 20.2289 14 21.4375V21.875C14 22.3563 13.6062 22.75 13.125 22.75C12.6438 22.75 12.25 22.3563 12.25 21.875V21.4375C12.25 21.1969 12.0531 21 11.8125 21H10.9375C10.6969 21 10.5 21.1969 10.5 21.4375V25.8125C10.5 26.0531 10.6969 26.25 10.9375 26.25H11.8125C12.0531 26.25 12.25 26.0531 12.25 25.8125V25.375C12.25 24.8937 12.6438 24.5 13.125 24.5C13.6062 24.5 14 24.8937 14 25.375V25.8125C14 27.0211 13.0211 28 11.8125 28H10.9375C9.72891 28 8.75 27.0211 8.75 25.8125V21.4375C8.75 20.2289 9.72891 19.25 10.9375 19.25ZM18.2164 19.25H20.125C20.6063 19.25 21 19.6437 21 20.125C21 20.6063 20.6063 21 20.125 21H18.2164C17.8227 21 17.5 21.3227 17.5 21.7164C17.5 22.0008 17.6641 22.2578 17.9266 22.3727L19.9719 23.2805C20.8633 23.6742 21.4375 24.5602 21.4375 25.5336C21.4375 26.8953 20.3328 28 18.9711 28H16.625C16.1437 28 15.75 27.6063 15.75 27.125C15.75 26.6437 16.1437 26.25 16.625 26.25H18.9711C19.3648 26.25 19.6875 25.9273 19.6875 25.5336C19.6875 25.2492 19.5234 24.9922 19.2609 24.8773L17.2156 23.9695C16.3242 23.5758 15.75 22.6898 15.75 21.7164C15.75 20.3547 16.8547 19.25 18.2164 19.25ZM23.625 19.25C24.1063 19.25 24.5 19.6437 24.5 20.125V21.8531C24.5 23.1109 24.8008 24.3469 25.375 25.4625C25.9492 24.3523 26.25 23.1164 26.25 21.8531V20.125C26.25 19.6437 26.6437 19.25 27.125 19.25C27.6063 19.25 28 19.6437 28 20.125V21.8531C28 23.7508 27.4367 25.6102 26.3813 27.1906L26.1023 27.6117C25.9383 27.8578 25.6648 28 25.375 28C25.0852 28 24.8117 27.8523 24.6477 27.6117L24.3687 27.1906C23.3133 25.6102 22.75 23.7508 22.75 21.8531V20.125C22.75 19.6437 23.1437 19.25 23.625 19.25Z" fill="white"/>
</g>
<defs>
<clipPath id="clip0_5_1169">
<rect width="28" height="28" fill="white"/>
</clipPath>
</defs>
</svg>
