<svg width="24" height="21" viewBox="0 0 24 21" fill="none" xmlns="http://www.w3.org/2000/svg">
<path d="M23.375 12.8125V19.3125C23.375 19.7435 23.2038 20.1568 22.899 20.4615C22.5943 20.7663 22.181 20.9375 21.75 20.9375H2.25C1.81902 20.9375 1.4057 20.7663 1.10095 20.4615C0.796205 20.1568 0.625 19.7435 0.625 19.3125V12.8125C0.625 12.3815 0.796205 11.9682 1.10095 11.6635C1.4057 11.3587 1.81902 11.1875 2.25 11.1875H6.3125C6.52799 11.1875 6.73465 11.2731 6.88702 11.4255C7.0394 11.5778 7.125 11.7845 7.125 12C7.125 12.2155 7.0394 12.4222 6.88702 12.5745C6.73465 12.7269 6.52799 12.8125 6.3125 12.8125H2.25V19.3125H21.75V12.8125H17.6875C17.472 12.8125 17.2653 12.7269 17.113 12.5745C16.9606 12.4222 16.875 12.2155 16.875 12C16.875 11.7845 16.9606 11.5778 17.113 11.4255C17.2653 11.2731 17.472 11.1875 17.6875 11.1875H21.75C22.181 11.1875 22.5943 11.3587 22.899 11.6635C23.2038 11.9682 23.375 12.3815 23.375 12.8125ZM11.4252 12.5748C11.5006 12.6504 11.5902 12.7103 11.6889 12.7512C11.7875 12.7921 11.8932 12.8131 12 12.8131C12.1068 12.8131 12.2125 12.7921 12.3111 12.7512C12.4098 12.7103 12.4994 12.6504 12.5748 12.5748L17.4498 7.69984C17.6023 7.54739 17.688 7.34061 17.688 7.125C17.688 6.90939 17.6023 6.70261 17.4498 6.55016C17.2974 6.3977 17.0906 6.31205 16.875 6.31205C16.6594 6.31205 16.4526 6.3977 16.3002 6.55016L12.8125 10.0388V1.4375C12.8125 1.22201 12.7269 1.01535 12.5745 0.862976C12.4222 0.710602 12.2155 0.625 12 0.625C11.7845 0.625 11.5778 0.710602 11.4255 0.862976C11.2731 1.01535 11.1875 1.22201 11.1875 1.4375V10.0388L7.69984 6.55016C7.54739 6.3977 7.34061 6.31205 7.125 6.31205C6.90939 6.31205 6.70261 6.3977 6.55016 6.55016C6.3977 6.70261 6.31205 6.90939 6.31205 7.125C6.31205 7.34061 6.3977 7.54739 6.55016 7.69984L11.4252 12.5748ZM19.3125 16.0625C19.3125 15.8215 19.241 15.5858 19.1071 15.3854C18.9732 15.185 18.7828 15.0288 18.5601 14.9365C18.3374 14.8443 18.0924 14.8201 17.856 14.8672C17.6196 14.9142 17.4024 15.0303 17.232 15.2007C17.0615 15.3712 16.9454 15.5883 16.8984 15.8247C16.8514 16.0611 16.8755 16.3062 16.9678 16.5289C17.06 16.7516 17.2162 16.9419 17.4166 17.0759C17.6171 17.2098 17.8527 17.2812 18.0938 17.2812C18.417 17.2812 18.727 17.1528 18.9555 16.9243C19.1841 16.6957 19.3125 16.3857 19.3125 16.0625Z" fill="white"/>
</svg>
