<svg width="34" height="34" viewBox="0 0 34 34" fill="none" xmlns="http://www.w3.org/2000/svg">
<path d="M20.8048 16.3094L9.04395 14.2375V29.5471C9.04408 29.7134 9.07698 29.878 9.14076 30.0317C9.20453 30.1853 9.29794 30.3248 9.41565 30.4423C9.53335 30.5598 9.67305 30.653 9.82676 30.7165C9.98047 30.78 10.1452 30.8126 10.3115 30.8125H30.6053C30.7718 30.8129 30.9367 30.7805 31.0907 30.7171C31.2446 30.6537 31.3846 30.5606 31.5025 30.4431C31.6204 30.3255 31.714 30.1859 31.7779 30.0321C31.8418 29.8784 31.8748 29.7136 31.8749 29.5471V23.9063L20.8048 16.3094Z" fill="#185C37"/>
<path d="M20.8048 3.1875H10.3115C10.1452 3.18736 9.98047 3.21998 9.82676 3.2835C9.67305 3.34702 9.53335 3.44019 9.41565 3.5577C9.29794 3.67521 9.20453 3.81474 9.14076 3.96835C9.07698 4.12196 9.04408 4.28662 9.04395 4.45294V10.0938L20.8048 17L27.0321 19.0719L31.8749 17V10.0938L20.8048 3.1875Z" fill="#21A366"/>
<path d="M9.04395 10.0938H20.8048V17H9.04395V10.0938Z" fill="#107C41"/>
<path opacity="0.1" d="M17.4611 8.7125H9.04395V25.9781H17.4611C17.7965 25.9765 18.1177 25.8427 18.3552 25.6058C18.5926 25.369 18.7272 25.0481 18.7297 24.7127V9.97794C18.7272 9.64255 18.5926 9.32166 18.3552 9.08479C18.1177 8.84793 17.7965 8.71417 17.4611 8.7125Z" fill="black"/>
<path opacity="0.2" d="M16.7694 9.40312H9.04395V26.6687H16.7694C17.1048 26.6671 17.426 26.5333 17.6635 26.2965C17.9009 26.0596 18.0355 25.7387 18.038 25.4033V10.6686C18.0355 10.3332 17.9009 10.0123 17.6635 9.77541C17.426 9.53855 17.1048 9.40479 16.7694 9.40312Z" fill="black"/>
<path opacity="0.2" d="M16.7694 9.40312H9.04395V25.2875H16.7694C17.1048 25.2858 17.426 25.1521 17.6635 24.9152C17.9009 24.6783 18.0355 24.3574 18.038 24.0221V10.6686C18.0355 10.3332 17.9009 10.0123 17.6635 9.77541C17.426 9.53855 17.1048 9.40479 16.7694 9.40312Z" fill="black"/>
<path opacity="0.2" d="M16.0777 9.40312H9.04395V25.2875H16.0777C16.4131 25.2858 16.7343 25.1521 16.9718 24.9152C17.2092 24.6783 17.3438 24.3574 17.3463 24.0221V10.6686C17.3438 10.3332 17.2092 10.0123 16.9718 9.77541C16.7343 9.53855 16.4131 9.40479 16.0777 9.40312Z" fill="black"/>
<path d="M3.39363 9.40312H16.0778C16.4137 9.40284 16.7361 9.53597 16.974 9.77326C17.2119 10.0105 17.3458 10.3326 17.3464 10.6686V23.3314C17.3458 23.6674 17.2119 23.9895 16.974 24.2267C16.7361 24.464 16.4137 24.5972 16.0778 24.5969H3.39363C3.22722 24.5972 3.06238 24.5646 2.90855 24.5012C2.75471 24.4377 2.61489 24.3446 2.49708 24.2271C2.37926 24.1095 2.28576 23.9699 2.22191 23.8163C2.15807 23.6626 2.12514 23.4978 2.125 23.3314V10.6686C2.12514 10.5022 2.15807 10.3374 2.22191 10.1837C2.28576 10.0301 2.37926 9.89047 2.49708 9.77295C2.61489 9.65542 2.75471 9.56227 2.90855 9.49882C3.06238 9.43536 3.22722 9.40284 3.39363 9.40312Z" fill="url(#paint0_linear_5_1111)"/>
<path d="M6.05615 21.1151L8.72409 16.9883L6.28034 12.8849H8.24278L9.57621 15.5125C9.69946 15.7611 9.78872 15.946 9.82909 16.0692H9.84715C9.93428 15.8695 10.0267 15.6772 10.1234 15.4891L11.5493 12.8892H13.3555L10.8491 16.9692L13.4193 21.1182H11.4972L9.95659 18.2378C9.88506 18.114 9.82427 17.9842 9.7749 17.85H9.7494C9.70448 17.9808 9.64458 18.1059 9.5709 18.2229L7.98459 21.1151H6.05615Z" fill="white"/>
<path d="M30.6065 3.1875H20.8049V10.0938H31.8751V4.45294C31.875 4.28653 31.842 4.12178 31.7782 3.96811C31.7144 3.81443 31.6209 3.67484 31.503 3.55732C31.3852 3.4398 31.2454 3.34665 31.0916 3.2832C30.9377 3.21974 30.7729 3.18722 30.6065 3.1875Z" fill="#33C481"/>
<path d="M20.8049 17H31.8751V23.9062H20.8049V17Z" fill="#107C41"/>
<defs>
<linearGradient id="paint0_linear_5_1111" x1="4.77488" y1="8.40862" x2="14.6965" y2="25.5914" gradientUnits="userSpaceOnUse">
<stop stop-color="#18884F"/>
<stop offset="0.5" stop-color="#117E43"/>
<stop offset="1" stop-color="#0B6631"/>
</linearGradient>
</defs>
</svg>
