<svg width="22" height="22" viewBox="0 0 22 22" fill="none" xmlns="http://www.w3.org/2000/svg">
<path fill-rule="evenodd" clip-rule="evenodd" d="M4.65571 4.64657C8.13446 1.17241 13.7903 1.20907 17.2901 4.70982C20.7918 8.21149 20.8285 13.8701 17.3488 17.3488C13.87 20.8276 8.21146 20.7918 4.70979 17.2902C3.72483 16.3093 2.98064 15.1134 2.53562 13.7965C2.09061 12.4796 1.95689 11.0774 2.14496 9.70016C2.16964 9.5194 2.26511 9.35585 2.41037 9.24548C2.55563 9.13512 2.73879 9.08698 2.91954 9.11166C3.1003 9.13633 3.26385 9.2318 3.37422 9.37706C3.48458 9.52233 3.53272 9.70548 3.50804 9.88624C3.3484 11.0534 3.46158 12.2418 3.83869 13.3578C4.21581 14.4739 4.84658 15.4873 5.68146 16.3185C8.65604 19.2922 13.4438 19.3096 16.3771 16.3772C19.3095 13.4438 19.2921 8.65607 16.3185 5.68149C13.3457 2.70966 8.56071 2.69041 5.62738 5.61916L6.31304 5.62191C6.40333 5.62233 6.49264 5.64053 6.57589 5.67547C6.65914 5.71041 6.7347 5.7614 6.79824 5.82554C6.86178 5.88968 6.91207 5.9657 6.94623 6.04928C6.98039 6.13285 6.99776 6.22233 6.99734 6.31261C6.99691 6.4029 6.97871 6.49221 6.94377 6.57547C6.90884 6.65872 6.85784 6.73427 6.7937 6.79781C6.72956 6.86135 6.65354 6.91164 6.56997 6.9458C6.48639 6.97996 6.39691 6.99733 6.30663 6.99691L3.97279 6.98591C3.79157 6.98494 3.61805 6.91246 3.48999 6.78423C3.36193 6.65599 3.28968 6.48238 3.28896 6.30116L3.27704 3.96916C3.27656 3.87887 3.29387 3.78938 3.32797 3.70578C3.36208 3.62219 3.41232 3.54613 3.47582 3.48195C3.53931 3.41777 3.61483 3.36672 3.69806 3.33173C3.78129 3.29673 3.87059 3.27847 3.96088 3.27799C4.05116 3.27751 4.14066 3.29481 4.22425 3.32892C4.30785 3.36302 4.38391 3.41326 4.44809 3.47676C4.51227 3.54026 4.56331 3.61578 4.59831 3.69901C4.6333 3.78223 4.65156 3.87154 4.65204 3.96182L4.65571 4.64657Z" fill="white"/>
<path opacity="0.5" d="M11 6.64584C11.1823 6.64584 11.3572 6.71828 11.4861 6.84721C11.6151 6.97614 11.6875 7.15101 11.6875 7.33334V10.7158L13.7775 12.8058C13.845 12.8688 13.8992 12.9447 13.9368 13.029C13.9744 13.1133 13.9946 13.2044 13.9962 13.2967C13.9978 13.389 13.9809 13.4807 13.9463 13.5663C13.9117 13.6519 13.8602 13.7297 13.795 13.795C13.7297 13.8602 13.6519 13.9117 13.5663 13.9463C13.4807 13.9809 13.389 13.9978 13.2967 13.9962C13.2044 13.9946 13.1133 13.9744 13.029 13.9368C12.9447 13.8992 12.8688 13.8451 12.8058 13.7775L10.5811 11.5537C10.4958 11.4685 10.4283 11.3673 10.3822 11.2559C10.3361 11.1446 10.3124 11.0252 10.3125 10.9047V7.33334C10.3125 7.15101 10.3849 6.97614 10.5139 6.84721C10.6428 6.71828 10.8177 6.64584 11 6.64584Z" fill="white"/>
</svg>
