<svg width="19" height="19" viewBox="0 0 19 19" fill="none" xmlns="http://www.w3.org/2000/svg">
<path d="M17.4051 15.6063V9.5506C17.4051 9.06263 17.3045 8.57976 17.1094 8.13137C16.9143 7.68297 16.6289 7.27843 16.2704 6.94234L10.4584 1.49467C10.1197 1.17708 9.67025 1 9.20299 1C8.73573 1 8.28631 1.17708 7.94754 1.49467L2.13468 6.94234C1.77619 7.27843 1.49073 7.68297 1.29566 8.13137C1.10059 8.57976 0.999999 9.06263 1 9.5506V15.6063C1 16.0833 1.19204 16.5409 1.53388 16.8782C1.87572 17.2155 2.33935 17.4051 2.82278 17.4051H15.5823C16.0657 17.4051 16.5293 17.2155 16.8712 16.8782C17.213 16.5409 17.4051 16.0833 17.4051 15.6063Z" stroke="white" stroke-width="1.5" stroke-linecap="round" stroke-linejoin="round"/>
</svg>
