<svg width="18" height="26" viewBox="0 0 18 26" fill="none" xmlns="http://www.w3.org/2000/svg">
<path d="M13.875 1.625C14.306 1.625 14.7193 1.7962 15.024 2.10095C15.3288 2.4057 15.5 2.81902 15.5 3.25V22.75C15.5 23.181 15.3288 23.5943 15.024 23.899C14.7193 24.2038 14.306 24.375 13.875 24.375H4.125C3.69402 24.375 3.2807 24.2038 2.97595 23.899C2.67121 23.5943 2.5 23.181 2.5 22.75V3.25C2.5 2.81902 2.67121 2.4057 2.97595 2.10095C3.2807 1.7962 3.69402 1.625 4.125 1.625H13.875ZM4.125 0C3.26305 0 2.4364 0.34241 1.8269 0.951903C1.21741 1.5614 0.875 2.38805 0.875 3.25V22.75C0.875 23.612 1.21741 24.4386 1.8269 25.0481C2.4364 25.6576 3.26305 26 4.125 26H13.875C14.737 26 15.5636 25.6576 16.1731 25.0481C16.7826 24.4386 17.125 23.612 17.125 22.75V3.25C17.125 2.38805 16.7826 1.5614 16.1731 0.951903C15.5636 0.34241 14.737 0 13.875 0L4.125 0Z" fill="white"/>
<path d="M9 21.75C9.43098 21.75 9.8443 21.5788 10.149 21.274C10.4538 20.9693 10.625 20.556 10.625 20.125C10.625 19.694 10.4538 19.2807 10.149 18.976C9.8443 18.6712 9.43098 18.5 9 18.5C8.56902 18.5 8.1557 18.6712 7.85095 18.976C7.54621 19.2807 7.375 19.694 7.375 20.125C7.375 20.556 7.54621 20.9693 7.85095 21.274C8.1557 21.5788 8.56902 21.75 9 21.75Z" fill="white"/>
</svg>
