<svg width="37" height="37" viewBox="0 0 37 37" fill="none" xmlns="http://www.w3.org/2000/svg">
<path d="M23.3408 4.84067C22.2156 3.71545 20.6894 3.08331 19.0981 3.08331H9.25008C8.43233 3.08331 7.64807 3.40816 7.06984 3.9864C6.4916 4.56464 6.16675 5.3489 6.16675 6.16665V30.8333C6.16675 31.6511 6.4916 32.4353 7.06984 33.0136C7.64807 33.5918 8.43233 33.9166 9.25008 33.9166H27.7501C28.5678 33.9166 29.3521 33.5918 29.9303 33.0136C30.5086 32.4353 30.8334 31.6511 30.8334 30.8333V14.8186C30.8334 13.2273 30.2013 11.7012 29.0761 10.576L23.3408 4.84067ZM14.2435 25.3542C14.2435 27.1302 13.3941 27.75 12.0266 27.75C11.7029 27.75 11.2774 27.6945 11.0014 27.6004L11.1571 26.4642C11.3529 26.529 11.6027 26.5752 11.8802 26.5752C12.4722 26.5752 12.8406 26.307 12.8406 25.3357V21.4153H14.2451L14.2435 25.3542ZM19.3218 24.7915C18.8392 25.2432 18.1301 25.4483 17.2976 25.4483C17.1126 25.4483 16.9461 25.4375 16.8166 25.419V27.6467H15.4198V21.4985C16.0504 21.4036 16.6877 21.3608 17.3253 21.3706C18.1933 21.3706 18.813 21.5355 19.2277 21.8685C19.627 22.183 19.8953 22.701 19.8953 23.3115C19.8953 23.922 19.6902 24.44 19.3218 24.7915ZM25.9987 27.3615C25.5671 27.5095 24.7423 27.713 23.919 27.713C22.7828 27.713 21.9596 27.4262 21.3861 26.8712C20.8141 26.3347 20.4996 25.5223 20.5073 24.6065C20.5181 22.5345 22.0228 21.3521 24.067 21.3521C24.8702 21.3521 25.4915 21.5109 25.7952 21.6573L25.5008 22.7843C25.1585 22.6363 24.7346 22.516 24.0501 22.516C22.8769 22.516 21.9873 23.182 21.9873 24.5325C21.9873 25.8167 22.7936 26.5752 23.9468 26.5752C24.2721 26.5752 24.5295 26.5382 24.6421 26.4812V25.1769H23.6801V24.0777H25.9987V27.3615ZM21.5834 13.875H21.0417C20.4895 13.875 20.0417 13.4273 20.0417 12.875V8.58086C20.0417 7.68996 21.1189 7.24379 21.7489 7.87375L26.043 12.1679C26.6729 12.7978 26.2268 13.875 25.3359 13.875H21.5834Z" fill="white"/>
<path d="M17.3976 22.4343C17.1109 22.4343 16.9166 22.4621 16.8164 22.4898V24.329C16.9351 24.3568 17.0847 24.3645 17.2897 24.3645C18.0359 24.3645 18.4984 23.9852 18.4984 23.3485C18.4984 22.775 18.1022 22.4343 17.3976 22.4343Z" fill="white"/>
</svg>
