<svg width="73" height="94" viewBox="0 0 73 94" fill="none" xmlns="http://www.w3.org/2000/svg">
<path d="M36.5052 0C38.1621 0 39.5052 1.34315 39.5052 3V23.5C39.5052 26.1711 40.5458 28.7328 42.3979 30.6216C44.2501 32.5103 46.7622 33.5714 49.3815 33.5714H69.4262C71.0831 33.5714 72.4262 34.9146 72.4262 36.5714V83.9286C72.4262 86.5997 71.3857 89.1614 69.5335 91.0501C67.6814 92.9389 65.1693 94 62.5499 94H9.8763C7.25695 94 4.74487 92.9389 2.8927 91.0501C1.04054 89.1614 0 86.5997 0 83.9286V10.0714C0 7.40032 1.04054 4.83861 2.8927 2.94985C4.74487 1.06109 7.25695 0 9.8763 0H36.5052ZM50.3461 2.95429C48.5902 1.1615 46.0894 2.90564 46.0894 5.41505V23.5C46.0894 24.3904 46.4363 25.2443 47.0536 25.8739C47.671 26.5034 48.5084 26.8571 49.3815 26.8571H66.9748C69.5176 26.8571 71.3128 24.332 69.5325 22.5164L50.3461 2.95429Z" fill="#0EC00B"/>
<path d="M52.821 60.5479C52.821 51.7883 45.7226 44.6885 36.9617 44.6885H21.1024H21.0997V53.5376L42.8426 75.2805C45.533 74.2078 47.8575 72.4177 49.5844 70.1485C51.6167 67.4844 52.821 64.1583 52.821 60.5479ZM46.5636 60.5479C46.5636 63.2001 45.4883 65.6009 43.7522 67.337L27.3611 50.9459H36.963C42.2661 50.9472 46.5636 55.2474 46.5636 60.5479Z" fill="white"/>
<path d="M37.2078 75.5082H21.3459V59.6476L37.2078 75.5082Z" fill="white"/>
</svg>
