<svg width="36" height="36" viewBox="0 0 36 36" fill="none" xmlns="http://www.w3.org/2000/svg">
<path d="M27.1124 2.331L33.3719 8.856V33.669H9.98877V33.75H33.4518V8.93813L27.1124 2.331Z" fill="#909090"/>
<path d="M27.0348 2.25H9.90894V33.669H33.3719V8.85713L27.0348 2.25Z" fill="#F4F4F4"/>
<path d="M9.73685 3.9375H2.5481V11.6179H25.1606V3.9375H9.73685Z" fill="#7A7B7C"/>
<path d="M25.281 11.4874H2.69434V3.80138H25.281V11.4874Z" fill="#DD2025"/>
<path d="M10.1835 5.10075H8.71313V10.5008H9.86963V8.67938L10.125 8.694C10.3732 8.68973 10.619 8.64528 10.8529 8.56238C11.058 8.49184 11.2466 8.38047 11.4075 8.235C11.5712 8.09642 11.7002 7.92153 11.7844 7.72425C11.8972 7.39631 11.9375 7.04779 11.9025 6.70275C11.8955 6.45627 11.8523 6.21216 11.7743 5.97825C11.7032 5.8094 11.5978 5.65718 11.4648 5.53128C11.3317 5.40539 11.1739 5.30857 11.0014 5.247C10.8522 5.193 10.6981 5.15381 10.5413 5.13C10.4225 5.11168 10.3026 5.1019 10.1824 5.10075M9.96976 7.6815H9.86963V6.0165H10.0868C10.1826 6.00959 10.2787 6.0243 10.3681 6.05955C10.4575 6.09479 10.5378 6.14967 10.6031 6.22013C10.7385 6.40127 10.8108 6.62176 10.809 6.84788C10.809 7.12463 10.809 7.3755 10.5593 7.55213C10.3793 7.65109 10.1745 7.69677 9.96976 7.6815ZM14.0996 5.08613C13.9748 5.08613 13.8533 5.09513 13.7678 5.0985L13.5 5.10525H12.6225V10.5053H13.6553C14.0499 10.5161 14.4429 10.4492 14.8118 10.3084C15.1087 10.1906 15.3716 10.0008 15.5768 9.756C15.7763 9.50901 15.9195 9.22144 15.9964 8.91338C16.0848 8.56448 16.1279 8.20566 16.1246 7.84575C16.1465 7.42068 16.1136 6.99456 16.0268 6.57788C15.9444 6.27116 15.7901 5.98848 15.5768 5.75325C15.4094 5.56331 15.2044 5.41009 14.9749 5.30325C14.7778 5.21203 14.5704 5.1448 14.3573 5.103C14.2725 5.089 14.1867 5.0826 14.1008 5.08388M13.896 9.513H13.7835V6.066H13.7981C14.0301 6.03932 14.2647 6.08116 14.4731 6.18638C14.6258 6.30824 14.7501 6.46178 14.8376 6.63638C14.9321 6.82013 14.9865 7.02181 14.9974 7.22813C15.0075 7.47563 14.9974 7.67813 14.9974 7.84575C15.002 8.03884 14.9895 8.23196 14.9603 8.42288C14.9256 8.61888 14.8615 8.80853 14.7701 8.98538C14.6667 9.1498 14.527 9.28835 14.3618 9.39038C14.223 9.48015 14.0586 9.52203 13.8938 9.50963M19.6088 5.10525H16.875V10.5053H18.0315V8.36325H19.494V7.35975H18.0315V6.10875H19.6065V5.10525" fill="#464648"/>
<path d="M24.5035 22.7869C24.5035 22.7869 28.09 22.1366 28.09 23.3617C28.09 24.5869 25.8681 24.0885 24.5035 22.7869ZM21.8519 22.8802C21.2821 23.0062 20.7268 23.1905 20.1948 23.4304L20.6448 22.4179C21.0948 21.4054 21.5616 20.025 21.5616 20.025C22.0986 20.9287 22.7234 21.7774 23.4269 22.5585C22.8964 22.6376 22.3706 22.7458 21.8519 22.8825V22.8802ZM20.4321 15.5677C20.4321 14.5001 20.7775 14.2087 21.0464 14.2087C21.3153 14.2087 21.6179 14.3381 21.628 15.2651C21.5404 16.1973 21.3453 17.1161 21.0464 18.0034C20.637 17.2584 20.4252 16.4211 20.431 15.5711L20.4321 15.5677ZM15.202 27.3982C14.1018 26.7401 17.5094 24.714 18.127 24.6487C18.1236 24.6499 16.354 28.0867 15.202 27.3982ZM29.1374 23.5069C29.1261 23.3944 29.0249 22.149 26.8086 22.2019C25.8849 22.187 24.9616 22.2521 24.049 22.3965C23.1651 21.5059 22.4039 20.5015 21.7855 19.4096C22.1751 18.284 22.4108 17.1109 22.4864 15.9221C22.4538 14.5721 22.1309 13.7981 21.0959 13.8094C20.0609 13.8206 19.9101 14.7262 20.0463 16.074C20.1796 16.9797 20.4311 17.864 20.7944 18.7042C20.7944 18.7042 20.3163 20.1926 19.684 21.6731C19.0518 23.1536 18.6198 23.9299 18.6198 23.9299C17.5203 24.2878 16.4853 24.8195 15.5541 25.5049C14.6271 26.3677 14.2503 27.0304 14.7385 27.693C15.1593 28.2645 16.6319 28.3939 17.9481 26.6692C18.6475 25.7785 19.2864 24.8419 19.8606 23.8657C19.8606 23.8657 21.8676 23.3156 22.492 23.1649C23.1164 23.0141 23.8713 22.8949 23.8713 22.8949C23.8713 22.8949 25.7039 24.7387 27.4713 24.6735C29.2386 24.6082 29.1531 23.6171 29.1419 23.5091" fill="#DD2025"/>
<path d="M26.9482 2.33662V8.94375H33.2854L26.9482 2.33662Z" fill="#909090"/>
<path d="M27.0349 2.25V8.85713H33.372L27.0349 2.25Z" fill="#F4F4F4"/>
<path d="M10.0968 5.01413H8.62646V10.4141H9.78746V8.59388L10.044 8.6085C10.2921 8.60423 10.5379 8.55978 10.7718 8.47688C10.9769 8.40631 11.1656 8.29495 11.3265 8.1495C11.4889 8.01055 11.6168 7.83569 11.7 7.63875C11.8128 7.31081 11.8531 6.96229 11.8181 6.61725C11.8111 6.37077 11.7679 6.12667 11.6898 5.89275C11.6188 5.7239 11.5134 5.57168 11.3804 5.44578C11.2473 5.31989 11.0895 5.22307 10.917 5.1615C10.7671 5.10697 10.6122 5.06741 10.4546 5.04338C10.3358 5.02505 10.2159 5.01528 10.0957 5.01413M9.88309 7.59488H9.78296V5.92988H10.0012C10.097 5.92297 10.1932 5.93768 10.2826 5.97292C10.372 6.00817 10.4523 6.06305 10.5176 6.1335C10.6529 6.31464 10.7253 6.53513 10.7235 6.76125C10.7235 7.038 10.7235 7.28888 10.4737 7.4655C10.2938 7.56446 10.089 7.60902 9.88421 7.59375M14.013 4.9995C13.8881 4.9995 13.7666 5.0085 13.6811 5.01188L13.4167 5.01863H12.5392V10.4186H13.572C13.9666 10.4294 14.3596 10.3626 14.7285 10.2218C15.0254 10.104 15.2883 9.91416 15.4935 9.66938C15.693 9.42239 15.8362 9.13482 15.9131 8.82675C16.0015 8.47786 16.0446 8.11903 16.0413 7.75913C16.0632 7.33405 16.0303 6.90794 15.9435 6.49125C15.8611 6.18454 15.7068 5.90186 15.4935 5.66663C15.3261 5.47669 15.1211 5.32347 14.8916 5.21663C14.6945 5.12541 14.4871 5.05818 14.274 5.01638C14.1892 5.00238 14.1034 4.99598 14.0175 4.99725M13.8127 9.42638H13.7002V5.97938H13.7148C13.9468 5.95269 14.1814 5.99454 14.3898 6.09975C14.5425 6.22162 14.6668 6.37515 14.7543 6.54975C14.8488 6.7335 14.9032 6.93518 14.9141 7.1415C14.9242 7.389 14.9141 7.5915 14.9141 7.75913C14.9187 7.95222 14.9062 8.14534 14.877 8.33625C14.8423 8.53226 14.7782 8.7219 14.6868 8.89875C14.5834 9.06318 14.4437 9.20172 14.2785 9.30375C14.1397 9.39353 13.9753 9.43541 13.8105 9.423M19.5221 5.01863H16.7883V10.4186H17.9448V8.27663H19.4073V7.27313H17.9448V6.02213H19.5198V5.01863" fill="white"/>
</svg>
