<svg width="37" height="37" viewBox="0 0 37 37" fill="none" xmlns="http://www.w3.org/2000/svg">
<path d="M11.9972 22.4713C11.7105 22.4713 11.5162 22.4991 11.416 22.5268V24.366C11.5347 24.3938 11.6843 24.4015 11.8878 24.4015C12.6355 24.4015 13.098 24.0222 13.098 23.3855C13.098 22.8136 12.7002 22.4713 11.9972 22.4713Z" fill="white"/>
<path d="M23.3408 4.84067C22.2156 3.71545 20.6894 3.08331 19.0981 3.08331H9.25008C8.43233 3.08331 7.64807 3.40816 7.06984 3.9864C6.4916 4.56464 6.16675 5.3489 6.16675 6.16665V30.8333C6.16675 31.6511 6.4916 32.4353 7.06984 33.0136C7.64807 33.5918 8.43233 33.9166 9.25008 33.9166H27.7501C28.5678 33.9166 29.3521 33.5918 29.9303 33.0136C30.5086 32.4353 30.8334 31.6511 30.8334 30.8333V14.8186C30.8334 13.2273 30.2013 11.7012 29.0761 10.576L23.3408 4.84067ZM13.9213 24.8285C13.4388 25.2802 12.7281 25.4853 11.8971 25.4853C11.7121 25.4853 11.5441 25.4745 11.4161 25.456V27.6837H10.0194V21.5371C10.6494 21.4421 11.2862 21.3993 11.9233 21.4091C12.7913 21.4091 13.4126 21.5741 13.8273 21.9071C14.225 22.2216 14.4933 22.7396 14.4933 23.3501C14.4933 23.9606 14.2913 24.477 13.9213 24.8285ZM20.5536 27.6852H19.0736L17.7431 25.2802C17.3731 24.6142 16.9661 23.811 16.6624 23.0803L16.6331 23.0895C16.6701 23.9128 16.6886 24.7915 16.6886 25.8075V27.6852H15.3936V21.4538H17.0386L18.3336 23.737C18.7036 24.3938 19.072 25.1708 19.3495 25.8722H19.3788C19.2892 25.0093 19.2491 24.142 19.2586 23.2745V21.4523H20.5536V27.6852ZM26.9808 27.3985C26.3095 27.6207 25.6082 27.7392 24.9011 27.75C23.7649 27.75 22.9416 27.4632 22.3666 26.9082C21.7946 26.3717 21.4801 25.5593 21.4894 24.6435C21.4986 22.5715 23.0048 21.3891 25.0491 21.3891C25.8523 21.3891 26.4736 21.5479 26.7773 21.6943L26.4828 22.8213C26.1406 22.6733 25.7151 22.553 25.0321 22.553C23.8574 22.553 22.9694 23.219 22.9694 24.5695C22.9694 25.8537 23.7741 26.6122 24.9288 26.6122C25.2526 26.6122 25.5116 26.5752 25.6226 26.5182V25.2139H24.6606V24.1147H26.9808V27.3985ZM21.5834 13.875H21.0417C20.4895 13.875 20.0417 13.4273 20.0417 12.875V8.58086C20.0417 7.68996 21.1189 7.24379 21.7489 7.87375L26.043 12.1679C26.6729 12.7978 26.2268 13.875 25.3359 13.875H21.5834Z" fill="white"/>
</svg>
