<svg width="22" height="22" viewBox="0 0 22 22" fill="none" xmlns="http://www.w3.org/2000/svg">
<g clip-path="url(#clip0_1_333)">
<path fill-rule="evenodd" clip-rule="evenodd" d="M10.065 0.0398414C11.9635 -0.122173 13.8715 0.211725 15.6021 1.00883C17.3328 1.80593 18.8267 3.0389 19.9375 4.58697V2.40622C19.9375 2.13271 20.0462 1.87041 20.2395 1.67701C20.4329 1.48362 20.6952 1.37497 20.9688 1.37497C21.2423 1.37497 21.5046 1.48362 21.698 1.67701C21.8913 1.87041 22 2.13271 22 2.40622V8.24997H16.1562C15.8827 8.24997 15.6204 8.14132 15.427 7.94792C15.2337 7.75452 15.125 7.49222 15.125 7.21872C15.125 6.94521 15.2337 6.68291 15.427 6.48951C15.6204 6.29612 15.8827 6.18747 16.1562 6.18747H18.5309C17.5905 4.71609 16.2398 3.5524 14.6454 2.84015C13.0511 2.1279 11.283 1.8983 9.55966 2.1797C7.83629 2.46111 6.2331 3.24119 4.94813 4.42358C3.66317 5.60598 2.75272 7.1389 2.32925 8.83297C2.29801 8.96604 2.24063 9.09158 2.16045 9.20228C2.08026 9.31298 1.97886 9.40663 1.86215 9.4778C1.74545 9.54896 1.61576 9.59621 1.48062 9.6168C1.34549 9.63739 1.20761 9.63091 1.07501 9.59773C0.942404 9.56456 0.817717 9.50535 0.708198 9.42356C0.59868 9.34176 0.506516 9.23901 0.437064 9.12128C0.367613 9.00354 0.32226 8.87318 0.303644 8.73776C0.285028 8.60234 0.29352 8.46457 0.328625 8.33247C0.884873 6.1083 2.12218 4.11353 3.86759 2.62697C5.613 1.14041 7.77928 0.236371 10.0636 0.0412164L10.065 0.0398414ZM5.39 20.4613C6.86398 21.335 8.52167 21.8522 10.2309 21.9718C11.9402 22.0914 13.6538 21.81 15.235 21.1501C16.8163 20.4903 18.2216 19.4701 19.3388 18.171C20.456 16.8719 21.2543 15.3297 21.67 13.6675C21.7319 13.4037 21.6875 13.1262 21.5465 12.8949C21.4055 12.6637 21.1791 12.4971 20.9163 12.4314C20.6535 12.3656 20.3754 12.406 20.1421 12.5436C19.9087 12.6812 19.7389 12.9052 19.6694 13.167C19.2457 14.8607 18.3352 16.3932 17.0503 17.5753C15.7655 18.7574 14.1625 19.5373 12.4395 19.8187C10.7164 20.1 8.94862 19.8706 7.35448 19.1586C5.76033 18.4467 4.40961 17.2834 3.46913 15.8125H5.84375C6.11725 15.8125 6.37956 15.7038 6.57295 15.5104C6.76635 15.317 6.875 15.0547 6.875 14.7812C6.875 14.5077 6.76635 14.2454 6.57295 14.052C6.37956 13.8586 6.11725 13.75 5.84375 13.75H0V19.5937C0 19.8672 0.108649 20.1295 0.302046 20.3229C0.495443 20.5163 0.757746 20.625 1.03125 20.625C1.30475 20.625 1.56706 20.5163 1.76045 20.3229C1.95385 20.1295 2.0625 19.8672 2.0625 19.5937V17.413C2.94907 18.6481 4.08208 19.6861 5.39 20.4613Z" fill="white"/>
</g>
<defs>
<clipPath id="clip0_1_333">
<rect width="22" height="22" fill="white"/>
</clipPath>
</defs>
</svg>
