assets\icons\googledrive.svg<svg width="19" height="19" viewBox="0 0 19 19" fill="none" xmlns="http://www.w3.org/2000/svg">
<path d="M14.25 17.4167C13.5903 17.4167 13.0295 17.1858 12.5677 16.724C12.1059 16.2622 11.875 15.7014 11.875 15.0417C11.875 14.9493 11.8816 14.8535 11.8948 14.7543C11.908 14.6551 11.9278 14.5661 11.9542 14.4875L6.37292 11.2417C6.14861 11.4396 5.89792 11.5947 5.62083 11.7072C5.34375 11.8196 5.05347 11.8755 4.75 11.875C4.09028 11.875 3.52951 11.6441 3.06771 11.1823C2.6059 10.7205 2.375 10.1597 2.375 9.5C2.375 8.84028 2.6059 8.27951 3.06771 7.81771C3.52951 7.3559 4.09028 7.125 4.75 7.125C5.05347 7.125 5.34375 7.18121 5.62083 7.29362C5.89792 7.40604 6.14861 7.56094 6.37292 7.75833L11.9542 4.5125C11.9278 4.43333 11.908 4.3444 11.8948 4.24571C11.8816 4.14701 11.875 4.05122 11.875 3.95833C11.875 3.29861 12.1059 2.73785 12.5677 2.27604C13.0295 1.81424 13.5903 1.58333 14.25 1.58333C14.9097 1.58333 15.4705 1.81424 15.9323 2.27604C16.3941 2.73785 16.625 3.29861 16.625 3.95833C16.625 4.61806 16.3941 5.17882 15.9323 5.64062C15.4705 6.10243 14.9097 6.33333 14.25 6.33333C13.9465 6.33333 13.6562 6.27739 13.3792 6.1655C13.1021 6.05361 12.8514 5.89844 12.6271 5.7L7.04583 8.94583C7.07222 9.025 7.09201 9.11419 7.10521 9.21342C7.1184 9.31264 7.125 9.40817 7.125 9.5C7.125 9.59236 7.1184 9.68815 7.10521 9.78737C7.09201 9.8866 7.07222 9.97553 7.04583 10.0542L12.6271 13.3C12.8514 13.1021 13.1021 12.9472 13.3792 12.8353C13.6562 12.7234 13.9465 12.6672 14.25 12.6667C14.9097 12.6667 15.4705 12.8976 15.9323 13.3594C16.3941 13.8212 16.625 14.3819 16.625 15.0417C16.625 15.7014 16.3941 16.2622 15.9323 16.724C15.4705 17.1858 14.9097 17.4167 14.25 17.4167Z" fill="#F9F9F9"/>
</svg>
