<svg width="22" height="22" viewBox="0 0 22 22" fill="none" xmlns="http://www.w3.org/2000/svg">
<path d="M15.5833 9.16666H12.8333V6.41666L16.0416 3.20833C15.0153 2.71817 13.8623 2.55824 12.7413 2.75057C11.6203 2.9429 10.5865 3.47803 9.78225 4.28227C8.978 5.08652 8.44287 6.12031 8.25054 7.2413C8.05821 8.36229 8.21814 9.51534 8.7083 10.5417L3.20831 16.0417C2.84363 16.4063 2.63876 16.9009 2.63876 17.4167C2.63876 17.9324 2.84363 18.427 3.20831 18.7917C3.57298 19.1563 4.06758 19.3612 4.58331 19.3612C5.09903 19.3612 5.59363 19.1563 5.9583 18.7917L11.4583 13.2917C12.4846 13.7818 13.6377 13.9418 14.7587 13.7494C15.8797 13.5571 16.9135 13.022 17.7177 12.2177C18.5219 11.4135 19.0571 10.3797 19.2494 9.2587C19.4417 8.13771 19.2818 6.98466 18.7916 5.95833L15.5833 9.16666Z" stroke="white" stroke-width="1.2" stroke-linecap="round" stroke-linejoin="round"/>
</svg>
