<svg width="34" height="34" viewBox="0 0 34 34" fill="none" xmlns="http://www.w3.org/2000/svg">
<path d="M21.5908 4.5907C20.4656 3.46548 18.9394 2.83334 17.3481 2.83334H8.50008C7.74863 2.83334 7.02797 3.13185 6.49661 3.66321C5.96526 4.19456 5.66675 4.91523 5.66675 5.66668V28.3333C5.66675 29.0848 5.96526 29.8055 6.49661 30.3368C7.02797 30.8682 7.74863 31.1667 8.50008 31.1667H25.5001C26.2515 31.1667 26.9722 30.8682 27.5035 30.3368C28.0349 29.8055 28.3334 29.0848 28.3334 28.3333V13.8186C28.3334 12.2273 27.7013 10.7012 26.5761 9.57598L21.5908 4.5907ZM14.1639 20.9213H12.6013V25.5595H11.3022V20.9213H9.76516V19.8333H14.1639V20.9213ZM18.0243 25.5595L17.5072 24.5239C17.2947 24.1244 17.1587 23.8269 16.9987 23.4954H16.9802C16.8627 23.8255 16.7182 24.123 16.5382 24.5239L16.0637 25.5595H14.5832L16.2422 22.6624L14.6427 19.8333H16.1302L16.6317 20.8788C16.8032 21.2259 16.9292 21.5064 17.0652 21.8294H17.0837C17.2197 21.4639 17.3302 21.2089 17.4747 20.8788L17.9577 19.8333H19.4353L17.8217 22.6284L19.5189 25.5595H18.0243ZM24.235 20.9213H22.671V25.5595H21.3719V20.9213H19.8348V19.8333H24.2336L24.235 20.9213ZM19.8334 12.75H19.4167C18.8645 12.75 18.4167 12.3023 18.4167 11.75V8.08089C18.4167 7.18999 19.4939 6.74382 20.1239 7.37378L23.793 11.0429C24.4229 11.6729 23.9768 12.75 23.0859 12.75H19.8334Z" fill="white"/>
</svg>
