<svg width="32" height="32" viewBox="0 0 32 32" fill="none" xmlns="http://www.w3.org/2000/svg">
<g clip-path="url(#clip0_5_1070)">
<path d="M30.6141 2H9.45075C9.10005 2 8.76371 2.14044 8.51572 2.39043C8.26774 2.64041 8.12842 2.97947 8.12842 3.333V9L20.0324 12.5L31.9364 9V3.333C31.9364 2.97947 31.7971 2.64041 31.5491 2.39043C31.3011 2.14044 30.9648 2 30.6141 2Z" fill="#41A5EE"/>
<path d="M31.9364 9H8.12842V16L20.0324 19.5L31.9364 16V9Z" fill="#2B7CD3"/>
<path d="M31.9364 16H8.12842V23L20.0324 26.5L31.9364 23V16Z" fill="#185ABD"/>
<path d="M31.9364 23H8.12842V28.667C8.12842 29.0205 8.26774 29.3596 8.51572 29.6096C8.76371 29.8596 9.10005 30 9.45075 30H30.6141C30.9648 30 31.3011 29.8596 31.5491 29.6096C31.7971 29.3596 31.9364 29.0205 31.9364 28.667V23Z" fill="#103F91"/>
<path opacity="0.1" d="M16.7261 7H8.12842V26H16.7261C17.0765 25.9989 17.4122 25.8582 17.66 25.6084C17.9077 25.3587 18.0474 25.0202 18.0484 24.667V8.333C18.0474 7.97979 17.9077 7.64135 17.66 7.39159C17.4122 7.14183 17.0765 7.00106 16.7261 7Z" fill="black"/>
<path opacity="0.2" d="M15.7341 8H8.12842V27H15.7341C16.0845 26.9989 16.4202 26.8582 16.668 26.6084C16.9157 26.3587 17.0554 26.0202 17.0564 25.667V9.333C17.0554 8.97979 16.9157 8.64135 16.668 8.39159C16.4202 8.14183 16.0845 8.00106 15.7341 8Z" fill="black"/>
<path opacity="0.2" d="M15.7341 8H8.12842V25H15.7341C16.0845 24.9989 16.4202 24.8582 16.668 24.6084C16.9157 24.3587 17.0554 24.0202 17.0564 23.667V9.333C17.0554 8.97979 16.9157 8.64135 16.668 8.39159C16.4202 8.14183 16.0845 8.00106 15.7341 8Z" fill="black"/>
<path opacity="0.2" d="M14.7421 8H8.12842V25H14.7421C15.0925 24.9989 15.4282 24.8582 15.676 24.6084C15.9237 24.3587 16.0634 24.0202 16.0644 23.667V9.333C16.0634 8.97979 15.9237 8.64135 15.676 8.39159C15.4282 8.14183 15.0925 8.00106 14.7421 8Z" fill="black"/>
<path d="M1.51472 8H14.742C15.0928 8 15.4291 8.14044 15.6771 8.39043C15.9251 8.64041 16.0644 8.97947 16.0644 9.333V22.667C16.0644 23.0205 15.9251 23.3596 15.6771 23.6096C15.4291 23.8596 15.0928 24 14.742 24H1.51472C1.16401 24 0.827672 23.8596 0.579686 23.6096C0.3317 23.3596 0.192383 23.0205 0.192383 22.667L0.192383 9.333C0.192383 8.97947 0.3317 8.64041 0.579686 8.39043C0.827672 8.14044 1.16401 8 1.51472 8Z" fill="#185ABD"/>
<path d="M12.0469 21H10.2613L8.17807 14.1L5.99567 21H4.21007L2.22607 11H4.01167L5.40047 18L7.48367 11.2H8.97167L10.9557 18L12.3445 11H14.0309L12.0469 21Z" fill="white"/>
</g>
<defs>
<clipPath id="clip0_5_1070">
<rect width="32" height="32" fill="white"/>
</clipPath>
</defs>
</svg>
